<svg xmlns="http://www.w3.org/2000/svg" viewBox="0 0 280 170" width="100%" height="100%" preserveAspectRatio="xMidYMid meet">
  <!-- Scene 2 AFTER — Vikas Prastav: bhawan became a library
       Cross-fades from vikas_prastav.svg. Same building, same villager
       outside, same sun. What changed:
         - Grey walls → warm cream (no longer "unused")
         - Label "सामुदायिक भवन" → "पुस्तकालय" on a terracotta sign
         - Windows now show bookshelves with colourful books
         - Door is OPEN with a warm light glow inside
         - A small child figure entering through the doorway
         - The villager's thought bubble is GONE (the dream is real) -->

  <!-- Sun (upper-right) -->
  <circle cx="232" cy="30" r="14" fill="#F5B940" opacity="0.18"/>
  <circle cx="232" cy="30" r="9" fill="#F5B940"/>
  <g stroke="#F5B940" stroke-width="1.1" stroke-linecap="round" fill="none">
    <line x1="232" y1="14" x2="232" y2="18"/>
    <line x1="216" y1="30" x2="220" y2="30"/>
    <line x1="244" y1="30" x2="248" y2="30"/>
  </g>

  <!-- Ground -->
  <path d="M 0,134 L 280,134 L 280,170 L 0,170 Z" fill="#9BC18A"/>

  <!-- Building structure -->
  <g>
    <!-- Walls — now warm cream (was grey in the BEFORE) -->
    <rect x="120" y="48" width="148" height="86" fill="#E6C9A8" rx="2"/>
    <!-- Roof — terracotta peaked -->
    <polygon points="114,48 194,18 274,48" fill="#A23808"/>
    <!-- Small ridge cap -->
    <rect x="190" y="22" width="8" height="4" fill="#7A5230"/>

    <!-- Terracotta sign with library label -->
    <rect x="124" y="36" width="120" height="14" fill="#C2440A" rx="2"/>
    <text x="184" y="46.5" text-anchor="middle" font-size="9.5"
          font-weight="700" fill="#FCE9D4"
          font-family="serif">पुस्तकालय</text>

    <!-- LEFT window with bookshelves -->
    <rect x="132" y="60" width="44" height="40" fill="#FCE9D4"
          stroke="#7A5230" stroke-width="1"/>
    <!-- Shelf bars + books inside -->
    <g>
      <rect x="135" y="62" width="38" height="5" fill="#7A5230"/>
      <rect x="136" y="62.5" width="3" height="4" fill="#C2440A"/>
      <rect x="140" y="62.5" width="3" height="4" fill="#4A6B3F"/>
      <rect x="144" y="62.5" width="3" height="4" fill="#F5B940"/>
      <rect x="148" y="62.5" width="3" height="4" fill="#3F5470"/>
      <rect x="152" y="62.5" width="3" height="4" fill="#D9384E"/>
      <rect x="156" y="62.5" width="3" height="4" fill="#C2440A"/>
      <rect x="160" y="62.5" width="3" height="4" fill="#4A6B3F"/>
      <rect x="164" y="62.5" width="3" height="4" fill="#F5B940"/>
      <rect x="168" y="62.5" width="3" height="4" fill="#3F5470"/>

      <rect x="135" y="72" width="38" height="5" fill="#7A5230"/>
      <rect x="136" y="72.5" width="3" height="4" fill="#4A6B3F"/>
      <rect x="140" y="72.5" width="3" height="4" fill="#F5B940"/>
      <rect x="144" y="72.5" width="3" height="4" fill="#C2440A"/>
      <rect x="148" y="72.5" width="3" height="4" fill="#3F5470"/>
      <rect x="152" y="72.5" width="3" height="4" fill="#4A6B3F"/>
      <rect x="156" y="72.5" width="3" height="4" fill="#D9384E"/>
      <rect x="160" y="72.5" width="3" height="4" fill="#F5B940"/>
      <rect x="164" y="72.5" width="3" height="4" fill="#3F5470"/>
      <rect x="168" y="72.5" width="3" height="4" fill="#C2440A"/>

      <rect x="135" y="82" width="38" height="5" fill="#7A5230"/>
      <rect x="136" y="82.5" width="3" height="4" fill="#F5B940"/>
      <rect x="140" y="82.5" width="3" height="4" fill="#3F5470"/>
      <rect x="144" y="82.5" width="3" height="4" fill="#4A6B3F"/>
      <rect x="148" y="82.5" width="3" height="4" fill="#C2440A"/>
      <rect x="152" y="82.5" width="3" height="4" fill="#F5B940"/>
      <rect x="156" y="82.5" width="3" height="4" fill="#D9384E"/>
      <rect x="160" y="82.5" width="3" height="4" fill="#4A6B3F"/>
      <rect x="164" y="82.5" width="3" height="4" fill="#F5B940"/>
      <rect x="168" y="82.5" width="3" height="4" fill="#3F5470"/>

      <rect x="135" y="92" width="38" height="5" fill="#7A5230"/>
      <rect x="136" y="92.5" width="3" height="4" fill="#3F5470"/>
      <rect x="140" y="92.5" width="3" height="4" fill="#F5B940"/>
      <rect x="144" y="92.5" width="3" height="4" fill="#D9384E"/>
      <rect x="148" y="92.5" width="3" height="4" fill="#4A6B3F"/>
      <rect x="152" y="92.5" width="3" height="4" fill="#C2440A"/>
      <rect x="156" y="92.5" width="3" height="4" fill="#F5B940"/>
      <rect x="160" y="92.5" width="3" height="4" fill="#3F5470"/>
      <rect x="164" y="92.5" width="3" height="4" fill="#C2440A"/>
      <rect x="168" y="92.5" width="3" height="4" fill="#4A6B3F"/>
    </g>

    <!-- RIGHT window with bookshelves -->
    <rect x="212" y="60" width="44" height="40" fill="#FCE9D4"
          stroke="#7A5230" stroke-width="1"/>
    <g>
      <rect x="215" y="62" width="38" height="5" fill="#7A5230"/>
      <rect x="216" y="62.5" width="3" height="4" fill="#3F5470"/>
      <rect x="220" y="62.5" width="3" height="4" fill="#F5B940"/>
      <rect x="224" y="62.5" width="3" height="4" fill="#C2440A"/>
      <rect x="228" y="62.5" width="3" height="4" fill="#4A6B3F"/>
      <rect x="232" y="62.5" width="3" height="4" fill="#F5B940"/>
      <rect x="236" y="62.5" width="3" height="4" fill="#D9384E"/>
      <rect x="240" y="62.5" width="3" height="4" fill="#C2440A"/>
      <rect x="244" y="62.5" width="3" height="4" fill="#4A6B3F"/>
      <rect x="248" y="62.5" width="3" height="4" fill="#F5B940"/>

      <rect x="215" y="72" width="38" height="5" fill="#7A5230"/>
      <rect x="216" y="72.5" width="3" height="4" fill="#C2440A"/>
      <rect x="220" y="72.5" width="3" height="4" fill="#4A6B3F"/>
      <rect x="224" y="72.5" width="3" height="4" fill="#F5B940"/>
      <rect x="228" y="72.5" width="3" height="4" fill="#3F5470"/>
      <rect x="232" y="72.5" width="3" height="4" fill="#D9384E"/>
      <rect x="236" y="72.5" width="3" height="4" fill="#4A6B3F"/>
      <rect x="240" y="72.5" width="3" height="4" fill="#F5B940"/>
      <rect x="244" y="72.5" width="3" height="4" fill="#C2440A"/>
      <rect x="248" y="72.5" width="3" height="4" fill="#3F5470"/>

      <rect x="215" y="82" width="38" height="5" fill="#7A5230"/>
      <rect x="216" y="82.5" width="3" height="4" fill="#4A6B3F"/>
      <rect x="220" y="82.5" width="3" height="4" fill="#F5B940"/>
      <rect x="224" y="82.5" width="3" height="4" fill="#3F5470"/>
      <rect x="228" y="82.5" width="3" height="4" fill="#C2440A"/>
      <rect x="232" y="82.5" width="3" height="4" fill="#F5B940"/>
      <rect x="236" y="82.5" width="3" height="4" fill="#4A6B3F"/>
      <rect x="240" y="82.5" width="3" height="4" fill="#D9384E"/>
      <rect x="244" y="82.5" width="3" height="4" fill="#3F5470"/>
      <rect x="248" y="82.5" width="3" height="4" fill="#F5B940"/>

      <rect x="215" y="92" width="38" height="5" fill="#7A5230"/>
      <rect x="216" y="92.5" width="3" height="4" fill="#F5B940"/>
      <rect x="220" y="92.5" width="3" height="4" fill="#C2440A"/>
      <rect x="224" y="92.5" width="3" height="4" fill="#4A6B3F"/>
      <rect x="228" y="92.5" width="3" height="4" fill="#3F5470"/>
      <rect x="232" y="92.5" width="3" height="4" fill="#F5B940"/>
      <rect x="236" y="92.5" width="3" height="4" fill="#D9384E"/>
      <rect x="240" y="92.5" width="3" height="4" fill="#4A6B3F"/>
      <rect x="244" y="92.5" width="3" height="4" fill="#F5B940"/>
      <rect x="248" y="92.5" width="3" height="4" fill="#3F5470"/>
    </g>

    <!-- Door — OPEN with warm light inside -->
    <rect x="180" y="100" width="28" height="34" fill="#7A5230" rx="1"/>
    <rect x="178" y="100" width="32" height="3" fill="#5A3B22"/>
    <!-- Warm light glow spilling from inside -->
    <rect x="180" y="100" width="28" height="34" fill="#F5B940" opacity="0.32"/>
    <!-- Doorknob -->
    <circle cx="202" cy="118" r="0.9" fill="#F5B940"/>
  </g>

  <!-- Small child figure entering through the doorway -->
  <g>
    <rect x="189" y="114" width="4" height="14" fill="#3F5470" rx="0.8"/>
    <rect x="194" y="114" width="4" height="14" fill="#3F5470" rx="0.8"/>
    <rect x="187" y="102" width="14" height="14" fill="#D9384E" rx="2"/>
    <circle cx="194" cy="98" r="5" fill="#E6B79E"/>
    <path d="M 189,97 Q 194,91 199,97 Q 197,94 194,93 Q 191,94 189,97 Z"
          fill="#3A2A1A"/>
  </g>

  <!-- Villager — same position as in the BEFORE, slightly relaxed -->
  <g>
    <!-- Legs -->
    <rect x="76" y="108" width="6" height="26" fill="#3F5470" rx="1.5"/>
    <rect x="84" y="108" width="6" height="26" fill="#3F5470" rx="1.5"/>
    <!-- Torso -->
    <rect x="72" y="84" width="22" height="26" fill="#D9A55D" rx="3"/>
    <!-- Head -->
    <circle cx="83" cy="74" r="9" fill="#D6A07A"/>
    <path d="M 74,71 Q 83,62 92,71 L 92,77 Q 83,70 74,77 Z" fill="#3A2A1A"/>
    <circle cx="80" cy="74" r="0.7" fill="#3A2A1A"/>
    <circle cx="86" cy="74" r="0.7" fill="#3A2A1A"/>
    <path d="M 79,78 Q 83,81 87,78" stroke="#3A2A1A" stroke-width="0.8"
          fill="none" stroke-linecap="round"/>
    <!-- Bindi -->
    <circle cx="83" cy="68" r="0.9" fill="#C2440A"/>
    <!-- Both arms relaxed at sides -->
    <path d="M 72,90 Q 64,104 66,114" stroke="#D6A07A" stroke-width="5"
          fill="none" stroke-linecap="round"/>
    <path d="M 94,90 Q 102,104 100,114" stroke="#D6A07A" stroke-width="5"
          fill="none" stroke-linecap="round"/>
    <!-- Feet -->
    <ellipse cx="79" cy="136" rx="3.5" ry="1.6" fill="#3A2A1A"/>
    <ellipse cx="87" cy="136" rx="3.5" ry="1.6" fill="#3A2A1A"/>
  </g>

  <!-- Small foliage to ground the scene -->
  <g>
    <circle cx="34" cy="138" r="4" fill="#4A6B3F"/>
    <circle cx="40" cy="139" r="3" fill="#5A7B4A"/>
    <circle cx="28" cy="139" r="3" fill="#5A7B4A"/>
    <circle cx="56" cy="146" r="1.6" fill="#F5B940"/>
    <line x1="56" y1="148" x2="56" y2="152" stroke="#4A6B3F" stroke-width="0.8"/>
    <circle cx="108" cy="146" r="1.6" fill="#D9384E"/>
    <line x1="108" y1="148" x2="108" y2="152" stroke="#4A6B3F" stroke-width="0.8"/>
  </g>
</svg>
